<svg width="258" height="60" viewBox="0 0 258 60" fill="none" xmlns="http://www.w3.org/2000/svg">
<g filter="url(#filter0_d_50_59)">
<path d="M35.7743 6.08C35.7743 6.89066 35.5396 7.616 35.0703 8.256C34.6436 8.85333 34.1316 9.32266 33.5343 9.664C32.4676 8.93866 31.2303 8.27733 29.8223 7.68C28.4143 7.08266 26.6863 6.784 24.6383 6.784C22.2489 6.784 20.1369 7.31733 18.3022 8.384C16.5103 9.408 15.1023 10.9653 14.0783 13.056C13.0969 15.104 12.6063 17.6213 12.6063 20.608C12.6063 25.1307 13.7369 28.5653 15.9983 30.912C18.2596 33.216 21.2676 34.368 25.0223 34.368C27.0276 34.368 28.7556 34.0907 30.2063 33.536C31.6569 32.9813 32.9156 32.3413 33.9823 31.616C34.5369 31.9573 35.0063 32.4693 35.3903 33.152C35.8169 33.792 36.0303 34.5173 36.0303 35.328C36.0303 36.0533 35.8383 36.7147 35.4543 37.312C35.1129 37.9093 34.4943 38.4427 33.5983 38.912C32.7023 39.424 31.4649 39.8933 29.8863 40.32C28.3503 40.7467 26.4089 40.96 24.0623 40.96C20.3929 40.96 17.0436 40.2347 14.0143 38.784C11.0276 37.2907 8.65958 35.0507 6.91025 32.064C5.16092 29.0347 4.28625 25.216 4.28625 20.608C4.28625 16.128 5.16092 12.3733 6.91025 9.344C8.65958 6.31467 11.0063 4.032 13.9503 2.496C16.8943 0.917332 20.1156 0.127998 23.6143 0.127998C26.0889 0.127998 28.2223 0.405332 30.0143 0.959999C31.8489 1.51467 33.2569 2.24 34.2383 3.136C35.2623 4.032 35.7743 5.01333 35.7743 6.08ZM71.0732 24.832C71.0732 28.1173 70.4333 30.976 69.1533 33.408C67.8733 35.7973 66.0599 37.6533 63.7133 38.976C61.4093 40.256 58.6786 40.896 55.5213 40.896C52.3639 40.896 49.6119 40.256 47.2653 38.976C44.9186 37.6533 43.0839 35.7973 41.7613 33.408C40.4813 31.0187 39.8413 28.16 39.8413 24.832C39.8413 21.5467 40.5026 18.7093 41.8253 16.32C43.1479 13.9307 44.9826 12.096 47.3293 10.816C49.6759 9.49333 52.4066 8.832 55.5213 8.832C58.6359 8.832 61.3453 9.49333 63.6493 10.816C65.9959 12.096 67.8093 13.952 69.0893 16.384C70.4119 18.7733 71.0732 21.5893 71.0732 24.832ZM55.5213 15.104C53.1746 15.104 51.3186 15.9573 49.9533 17.664C48.6306 19.3707 47.9693 21.76 47.9693 24.832C47.9693 27.9893 48.6306 30.4213 49.9533 32.128C51.2759 33.792 53.1319 34.624 55.5213 34.624C57.8679 34.624 59.7026 33.7707 61.0253 32.064C62.3479 30.3573 63.0093 27.9467 63.0093 24.832C63.0093 21.8027 62.3479 19.4347 61.0253 17.728C59.7026 15.9787 57.8679 15.104 55.5213 15.104ZM100.362 9.088C101.472 9.088 102.389 9.344 103.114 9.856C103.84 10.368 104.202 11.1787 104.202 12.288C104.202 12.9707 103.968 14.1227 103.498 15.744C103.072 17.3227 102.496 19.1787 101.77 21.312C101.045 23.4453 100.234 25.6427 99.3383 27.904C98.4849 30.1653 97.6103 32.32 96.7143 34.368C95.8183 36.3733 95.0076 38.0587 94.2823 39.424C93.8983 39.7227 93.2796 39.9787 92.4263 40.192C91.6156 40.4053 90.6983 40.512 89.6743 40.512C88.4796 40.512 87.4556 40.3413 86.6023 40C85.7489 39.7013 85.1516 39.2107 84.8103 38.528C84.3409 37.632 83.7436 36.3733 83.0183 34.752C82.3356 33.1307 81.5889 31.2747 80.7783 29.184C79.9676 27.0933 79.1569 24.9387 78.3463 22.72C77.5356 20.5013 76.7889 18.368 76.1063 16.32C75.4663 14.272 74.9329 12.4587 74.5063 10.88C74.9756 10.368 75.5729 9.94133 76.2983 9.6C77.0663 9.25867 77.8556 9.088 78.6663 9.088C79.7756 9.088 80.6716 9.344 81.3542 9.856C82.0796 10.3253 82.6129 11.2 82.9543 12.48L86.2183 23.168C86.5596 24.2773 86.9436 25.4933 87.3703 26.816C87.8396 28.096 88.2663 29.3333 88.6503 30.528C89.0343 31.68 89.3543 32.6613 89.6103 33.472H89.8663C91.1463 29.7173 92.3836 25.8133 93.5783 21.76C94.8156 17.7067 95.8823 13.76 96.7783 9.92C97.8023 9.36533 98.9969 9.088 100.362 9.088ZM113.208 28.864L112.888 23.36L130.04 20.8C129.912 19.1787 129.294 17.7707 128.184 16.576C127.075 15.3813 125.454 14.784 123.32 14.784C121.144 14.784 119.331 15.552 117.88 17.088C116.43 18.5813 115.683 20.736 115.64 23.552L115.832 26.88C116.216 29.6107 117.262 31.616 118.968 32.896C120.718 34.176 122.915 34.816 125.56 34.816C127.352 34.816 129.016 34.56 130.552 34.048C132.088 33.4933 133.304 32.896 134.2 32.256C134.798 32.64 135.267 33.1307 135.608 33.728C135.992 34.2827 136.184 34.9013 136.184 35.584C136.184 36.6933 135.694 37.6533 134.712 38.464C133.731 39.232 132.408 39.8293 130.744 40.256C129.08 40.6827 127.182 40.896 125.048 40.896C121.763 40.896 118.84 40.2987 116.28 39.104C113.763 37.8667 111.779 36.032 110.328 33.6C108.92 31.168 108.216 28.1387 108.216 24.512C108.216 21.9093 108.622 19.6267 109.432 17.664C110.243 15.7013 111.331 14.08 112.696 12.8C114.104 11.4773 115.726 10.496 117.56 9.856C119.395 9.17333 121.315 8.832 123.32 8.832C126.136 8.832 128.59 9.408 130.68 10.56C132.814 11.6693 134.478 13.2267 135.672 15.232C136.91 17.2373 137.528 19.5413 137.528 22.144C137.528 23.3387 137.208 24.2347 136.568 24.832C135.971 25.3867 135.118 25.728 134.008 25.856L113.208 28.864ZM151.749 16.96V25.728H143.877V16.32C143.877 15.2533 144.133 14.3573 144.645 13.632C145.157 12.864 145.883 12.16 146.821 11.52C148.101 10.752 149.723 10.112 151.685 9.6C153.648 9.088 155.76 8.832 158.021 8.832C162.032 8.832 164.037 10.0693 164.037 12.544C164.037 13.1413 163.952 13.696 163.781 14.208C163.611 14.6773 163.397 15.104 163.141 15.488C162.715 15.4027 162.181 15.3387 161.541 15.296C160.901 15.2107 160.219 15.168 159.493 15.168C157.957 15.168 156.507 15.3387 155.141 15.68C153.819 15.9787 152.688 16.4053 151.749 16.96ZM143.877 23.104L151.749 23.488V39.872C151.408 40 150.917 40.1067 150.277 40.192C149.637 40.32 148.933 40.384 148.165 40.384C146.715 40.384 145.627 40.128 144.901 39.616C144.219 39.0613 143.877 38.1013 143.877 36.736V23.104Z" fill="white"/>
<path d="M186.148 40.96C182.778 40.96 179.876 40.3627 177.444 39.168C175.012 37.9307 173.156 36.2027 171.876 33.984C170.639 31.7653 170.02 29.1627 170.02 26.176V21.568H178.084V25.856C178.084 28.5867 178.831 30.6987 180.324 32.192C181.86 33.6427 183.802 34.368 186.148 34.368C188.452 34.368 190.372 33.6427 191.908 32.192C193.444 30.6987 194.212 28.5867 194.212 25.856V21.568H202.34V26.176C202.34 29.1627 201.7 31.7653 200.42 33.984C199.14 36.2027 197.284 37.9307 194.852 39.168C192.463 40.3627 189.562 40.96 186.148 40.96ZM178.084 23.808H170.02V1.152C170.362 1.06666 170.874 0.959998 171.556 0.831997C172.282 0.703999 173.007 0.639999 173.732 0.639999C175.268 0.639999 176.378 0.917332 177.06 1.472C177.743 1.984 178.084 2.96533 178.084 4.416V23.808ZM202.34 23.872H194.212V1.152C194.554 1.06666 195.087 0.959998 195.812 0.831997C196.538 0.703999 197.263 0.639999 197.988 0.639999C199.482 0.639999 200.57 0.917332 201.252 1.472C201.978 1.984 202.34 2.96533 202.34 4.416V23.872ZM225.337 40.896C223.63 40.896 222.073 40.6613 220.665 40.192C219.299 39.7653 218.169 39.2747 217.273 38.72V31.936C218.083 32.6187 219.043 33.2373 220.153 33.792C221.305 34.304 222.649 34.56 224.185 34.56C226.745 34.56 228.771 33.7707 230.265 32.192C231.758 30.5707 232.505 28.0747 232.505 24.704C232.505 22.3573 232.142 20.5013 231.417 19.136C230.734 17.728 229.774 16.704 228.537 16.064C227.299 15.424 225.913 15.104 224.377 15.104C223.182 15.104 222.137 15.2533 221.241 15.552C220.345 15.808 219.577 16.128 218.937 16.512V36.736H211.065V15.744C211.065 14.7627 211.257 13.952 211.641 13.312C212.025 12.672 212.665 12.0747 213.561 11.52C214.798 10.7947 216.334 10.176 218.169 9.664C220.003 9.10933 222.073 8.832 224.377 8.832C227.491 8.832 230.265 9.38667 232.697 10.496C235.129 11.5627 237.027 13.2693 238.393 15.616C239.801 17.9627 240.505 20.992 240.505 24.704C240.505 28.288 239.843 31.2747 238.521 33.664C237.241 36.0533 235.449 37.8667 233.145 39.104C230.883 40.2987 228.281 40.896 225.337 40.896ZM218.937 34.56V51.456C218.595 51.584 218.105 51.6907 217.465 51.776C216.825 51.904 216.121 51.968 215.353 51.968C213.902 51.968 212.814 51.6907 212.089 51.136C211.406 50.5813 211.065 49.6213 211.065 48.256V34.496L218.937 34.56ZM243.747 36.096C243.747 34.7307 244.174 33.5787 245.027 32.64C245.881 31.7013 247.054 31.232 248.547 31.232C250.041 31.232 251.214 31.7013 252.067 32.64C252.921 33.5787 253.347 34.7307 253.347 36.096C253.347 37.4613 252.921 38.6133 252.067 39.552C251.214 40.4907 250.041 40.96 248.547 40.96C247.054 40.96 245.881 40.4907 245.027 39.552C244.174 38.6133 243.747 37.4613 243.747 36.096Z" fill="#21A7D2"/>
</g>
<defs>
<filter id="filter0_d_50_59" x="0.286133" y="0.12793" width="257.061" height="59.8398" filterUnits="userSpaceOnUse" color-interpolation-filters="sRGB">
<feFlood flood-opacity="0" result="BackgroundImageFix"/>
<feColorMatrix in="SourceAlpha" type="matrix" values="0 0 0 0 0 0 0 0 0 0 0 0 0 0 0 0 0 0 127 0" result="hardAlpha"/>
<feOffset dy="4"/>
<feGaussianBlur stdDeviation="2"/>
<feComposite in2="hardAlpha" operator="out"/>
<feColorMatrix type="matrix" values="0 0 0 0 0 0 0 0 0 0 0 0 0 0 0 0 0 0 0.25 0"/>
<feBlend mode="normal" in2="BackgroundImageFix" result="effect1_dropShadow_50_59"/>
<feBlend mode="normal" in="SourceGraphic" in2="effect1_dropShadow_50_59" result="shape"/>
</filter>
</defs>
</svg>
